<svg width="1024" height="1024" viewBox="0 0 1024 1024" fill="none" xmlns="http://www.w3.org/2000/svg">
  <defs>
    <linearGradient id="v6Amber" x1="210" y1="138" x2="814" y2="886" gradientUnits="userSpaceOnUse">
      <stop stop-color="#FFE59A"/>
      <stop offset="0.52" stop-color="#C99025"/>
      <stop offset="1" stop-color="#725018"/>
    </linearGradient>
    <linearGradient id="v6Sky" x1="292" y1="218" x2="742" y2="792" gradientUnits="userSpaceOnUse">
      <stop stop-color="#1FB4E7"/>
      <stop offset="0.58" stop-color="#0B6EA8"/>
      <stop offset="1" stop-color="#073B66"/>
    </linearGradient>
    <linearGradient id="v6Cyan" x1="300" y1="306" x2="730" y2="730" gradientUnits="userSpaceOnUse">
      <stop stop-color="#8BFFF1"/>
      <stop offset="1" stop-color="#1BC2C7"/>
    </linearGradient>
    <linearGradient id="v6Green" x1="350" y1="270" x2="698" y2="760" gradientUnits="userSpaceOnUse">
      <stop stop-color="#A4E75B"/>
      <stop offset="1" stop-color="#4F7E2B"/>
    </linearGradient>
    <filter id="v6Shadow" x="-20%" y="-20%" width="140%" height="150%" color-interpolation-filters="sRGB">
      <feDropShadow dx="0" dy="22" stdDeviation="20" flood-color="#2C1B06" flood-opacity="0.25"/>
    </filter>
    <clipPath id="v6InnerClip">
      <path d="M512 158L815 333V691L512 866L209 691V333L512 158Z"/>
    </clipPath>
    <g id="v6Cell">
      <path d="M0 -42L36 -21V21L0 42L-36 21V-21L0 -42Z"/>
    </g>
    <g id="v6MiniAnt" fill="#2C2820" stroke="#2C2820" stroke-linecap="round">
      <ellipse cx="-14" cy="0" rx="11" ry="14"/>
      <circle cx="1" cy="0" r="8"/>
      <ellipse cx="17" cy="0" rx="12" ry="9"/>
      <path d="M-6 -7L-20 -20M-6 7L-20 20M5 -8L6 -24M5 8L6 24M14 -7L29 -17M14 7L29 17" stroke-width="3.4" fill="none"/>
      <path d="M29 -3C37 -12 45 -13 52 -12M29 3C37 12 45 13 52 12" stroke-width="3.4" fill="none"/>
    </g>
  </defs>

  <rect width="1024" height="1024" fill="#F9F3E2"/>

  <g filter="url(#v6Shadow)">
    <path d="M512 82L890 300V724L512 942L134 724V300L512 82Z" fill="#2C2820"/>
    <path d="M512 118L858 318V706L512 906L166 706V318L512 118Z" fill="url(#v6Amber)"/>
    <path d="M512 158L815 333V691L512 866L209 691V333L512 158Z" fill="url(#v6Sky)"/>

    <g clip-path="url(#v6InnerClip)">
      <path d="M146 676C224 521 371 428 545 397C672 374 782 405 894 502" stroke="#E6FAF8" stroke-width="8" opacity="0.28"/>
      <path d="M183 374C336 455 489 488 841 410" stroke="#E6FAF8" stroke-width="7" opacity="0.18"/>
      <path d="M519 123C467 279 445 517 514 903" stroke="#E6FAF8" stroke-width="8" opacity="0.18"/>
      <path d="M689 199C620 327 605 554 672 821" stroke="#E6FAF8" stroke-width="7" opacity="0.16"/>

      <path d="M254 374C323 304 438 278 534 322C585 345 590 394 554 424C517 456 452 429 410 465C364 505 295 498 258 449C236 420 230 398 254 374Z" fill="url(#v6Green)" opacity="0.95"/>
      <path d="M660 586C734 530 827 557 859 636C890 711 833 785 744 775C675 767 607 626 660 586Z" fill="url(#v6Green)" opacity="0.9"/>
      <path d="M320 676C382 646 456 684 468 760C478 827 405 857 350 816C308 785 283 697 320 676Z" fill="url(#v6Green)" opacity="0.9"/>

      <path d="M267 575C330 392 507 284 716 328" stroke="#0C2F47" stroke-width="39" stroke-linecap="round" opacity="0.34"/>
      <path d="M292 624C440 755 626 754 764 624" stroke="#0C2F47" stroke-width="39" stroke-linecap="round" opacity="0.34"/>
      <path d="M267 575C330 392 507 284 716 328" stroke="url(#v6Cyan)" stroke-width="22" stroke-linecap="round"/>
      <path d="M292 624C440 755 626 754 764 624" stroke="url(#v6Cyan)" stroke-width="22" stroke-linecap="round"/>

      <circle cx="267" cy="575" r="35" fill="#10BBC2"/>
      <circle cx="716" cy="328" r="35" fill="#10BBC2"/>
      <circle cx="292" cy="624" r="30" fill="#10BBC2"/>
      <circle cx="764" cy="624" r="30" fill="#10BBC2"/>
      <circle cx="267" cy="575" r="14" fill="#F9F3E2"/>
      <circle cx="716" cy="328" r="14" fill="#F9F3E2"/>
      <circle cx="292" cy="624" r="12" fill="#F9F3E2"/>
      <circle cx="764" cy="624" r="12" fill="#F9F3E2"/>

      <use href="#v6Cell" transform="translate(348 346) scale(1.06)" fill="#F7D879"/>
      <use href="#v6Cell" transform="translate(423 303) scale(0.86)" fill="#F7D879"/>
      <use href="#v6Cell" transform="translate(681 478) scale(0.9)" fill="#8ED84D"/>
      <use href="#v6Cell" transform="translate(730 538) scale(0.72)" fill="#8ED84D"/>
      <use href="#v6Cell" transform="translate(430 733) scale(0.86)" fill="#F7D879"/>

      <path d="M376 496C330 446 288 428 244 444" stroke="#2C2820" stroke-width="27" stroke-linecap="round"/>
      <path d="M376 566C330 616 288 634 244 618" stroke="#2C2820" stroke-width="27" stroke-linecap="round"/>
      <path d="M452 461L404 383" stroke="#2C2820" stroke-width="24" stroke-linecap="round"/>
      <path d="M452 601L404 679" stroke="#2C2820" stroke-width="24" stroke-linecap="round"/>
      <path d="M590 461L638 383" stroke="#2C2820" stroke-width="24" stroke-linecap="round"/>
      <path d="M590 601L638 679" stroke="#2C2820" stroke-width="24" stroke-linecap="round"/>
      <path d="M666 496C712 446 754 428 798 444" stroke="#2C2820" stroke-width="27" stroke-linecap="round"/>
      <path d="M666 566C712 616 754 634 798 618" stroke="#2C2820" stroke-width="27" stroke-linecap="round"/>

      <ellipse cx="397" cy="531" rx="77" ry="93" fill="#2C2820"/>
      <circle cx="522" cy="531" r="71" fill="#2C2820"/>
      <ellipse cx="653" cy="531" rx="88" ry="108" fill="#2C2820"/>

      <path d="M602 495C629 466 669 460 710 476" stroke="url(#v6Cyan)" stroke-width="17" stroke-linecap="round"/>
      <path d="M602 567L638 538L673 557L710 500" stroke="url(#v6Cyan)" stroke-width="20" stroke-linecap="round" stroke-linejoin="round"/>
      <circle cx="522" cy="531" r="35" fill="url(#v6Cyan)"/>
      <path d="M467 497C493 465 551 465 578 497" stroke="url(#v6Cyan)" stroke-width="20" stroke-linecap="round"/>
      <path d="M467 565C493 597 551 597 578 565" stroke="url(#v6Cyan)" stroke-width="20" stroke-linecap="round"/>

      <use href="#v6MiniAnt" transform="translate(360 694) rotate(19) scale(0.58)"/>
      <use href="#v6MiniAnt" transform="translate(458 727) rotate(6) scale(0.58)"/>
      <use href="#v6MiniAnt" transform="translate(584 724) rotate(-8) scale(0.58)"/>
      <use href="#v6MiniAnt" transform="translate(682 690) rotate(-22) scale(0.58)"/>
      <use href="#v6MiniAnt" transform="translate(393 412) rotate(-45) scale(0.5)"/>
      <use href="#v6MiniAnt" transform="translate(626 365) rotate(12) scale(0.5)"/>
    </g>

    <path d="M512 158L815 333V691L512 866L209 691V333L512 158Z" stroke="#11100D" stroke-width="28" stroke-linejoin="round"/>
    <path d="M512 201L777 354V670L512 823L247 670V354L512 201Z" stroke="#F9F3E2" stroke-width="10" stroke-linejoin="round" opacity="0.88"/>
  </g>
</svg>
